<svg xmlns="http://www.w3.org/2000/svg" fill="#000000" width="80" height="80"><rect id="backgroundrect" width="100%" height="100%" x="0" y="0" fill="none" stroke="none"/><g class="currentLayer" style=""><title>Layer 1</title><path d="M 10 10 L 10 70 L 70 70 L 70 10 Z M 12 12 L 68 12 L 68 68 L 12 68 Z M 32 18 C 30.355469 18 29 19.355469 29 21 L 29 22 L 29.417969 22 C 29.859375 23.105469 30.742188 24 32 24 L 48 24 C 49.257813 24 50.140625 23.105469 50.582031 22 L 51 22 L 51 21 C 51 19.355469 49.644531 18 48 18 Z M 32 20 L 48 20 C 48.566406 20 49 20.433594 49 21 C 49 21.566406 48.566406 22 48 22 L 32 22 C 31.433594 22 31 21.566406 31 21 C 31 20.433594 31.433594 20 32 20 Z M 18 63 C 17.449219 63 17 63.449219 17 64 C 17 64.550781 17.449219 65 18 65 C 18.550781 65 19 64.550781 19 64 C 19 63.449219 18.550781 63 18 63 Z M 22 63 C 21.449219 63 21 63.449219 21 64 C 21 64.550781 21.449219 65 22 65 C 22.550781 65 23 64.550781 23 64 C 23 63.449219 22.550781 63 22 63 Z M 26 63 C 25.449219 63 25 63.449219 25 64 C 25 64.550781 25.449219 65 26 65 C 26.550781 65 27 64.550781 27 64 C 27 63.449219 26.550781 63 26 63 Z M 30 63 C 29.449219 63 29 63.449219 29 64 C 29 64.550781 29.449219 65 30 65 C 30.550781 65 31 64.550781 31 64 C 31 63.449219 30.550781 63 30 63 Z M 34 63 C 33.449219 63 33 63.449219 33 64 C 33 64.550781 33.449219 65 34 65 C 34.550781 65 35 64.550781 35 64 C 35 63.449219 34.550781 63 34 63 Z M 38 63 C 37.449219 63 37 63.449219 37 64 C 37 64.550781 37.449219 65 38 65 C 38.550781 65 39 64.550781 39 64 C 39 63.449219 38.550781 63 38 63 Z M 42 63 C 41.449219 63 41 63.449219 41 64 C 41 64.550781 41.449219 65 42 65 C 42.550781 65 43 64.550781 43 64 C 43 63.449219 42.550781 63 42 63 Z M 46 63 C 45.449219 63 45 63.449219 45 64 C 45 64.550781 45.449219 65 46 65 C 46.550781 65 47 64.550781 47 64 C 47 63.449219 46.550781 63 46 63 Z M 50 63 C 49.449219 63 49 63.449219 49 64 C 49 64.550781 49.449219 65 50 65 C 50.550781 65 51 64.550781 51 64 C 51 63.449219 50.550781 63 50 63 Z M 54 63 C 53.449219 63 53 63.449219 53 64 C 53 64.550781 53.449219 65 54 65 C 54.550781 65 55 64.550781 55 64 C 55 63.449219 54.550781 63 54 63 Z M 58 63 C 57.449219 63 57 63.449219 57 64 C 57 64.550781 57.449219 65 58 65 C 58.550781 65 59 64.550781 59 64 C 59 63.449219 58.550781 63 58 63 Z M 62 63 C 61.449219 63 61 63.449219 61 64 C 61 64.550781 61.449219 65 62 65 C 62.550781 65 63 64.550781 63 64 C 63 63.449219 62.550781 63 62 63 Z" id="svg_1" class="selected" fill="#191f28" fill-opacity="1"/></g></svg>