<svg xmlns="http://www.w3.org/2000/svg" viewBox="0 0 80 80" width="32" height="32"><rect width="100%" height="100%" fill="none"/><g class="currentLayer"><path d="M10 10v60h60V10Zm2 2h56v56H12Zm20 6c-1.645 0-3 1.355-3 3v1h.418c.441 1.105 1.324 2 2.582 2h16c1.258 0 2.14-.895 2.582-2H51v-1c0-1.645-1.355-3-3-3Zm0 2h16c.566 0 1 .434 1 1 0 .566-.434 1-1 1H32c-.566 0-1-.434-1-1 0-.566.434-1 1-1ZM18 63c-.55 0-1 .45-1 1s.45 1 1 1 1-.45 1-1-.45-1-1-1Zm4 0c-.55 0-1 .45-1 1s.45 1 1 1 1-.45 1-1-.45-1-1-1Zm4 0c-.55 0-1 .45-1 1s.45 1 1 1 1-.45 1-1-.45-1-1-1Zm4 0c-.55 0-1 .45-1 1s.45 1 1 1 1-.45 1-1-.45-1-1-1Zm4 0c-.55 0-1 .45-1 1s.45 1 1 1 1-.45 1-1-.45-1-1-1Zm4 0c-.55 0-1 .45-1 1s.45 1 1 1 1-.45 1-1-.45-1-1-1Zm4 0c-.55 0-1 .45-1 1s.45 1 1 1 1-.45 1-1-.45-1-1-1Zm4 0c-.55 0-1 .45-1 1s.45 1 1 1 1-.45 1-1-.45-1-1-1Zm4 0c-.55 0-1 .45-1 1s.45 1 1 1 1-.45 1-1-.45-1-1-1Zm4 0c-.55 0-1 .45-1 1s.45 1 1 1 1-.45 1-1-.45-1-1-1Zm4 0c-.55 0-1 .45-1 1s.45 1 1 1 1-.45 1-1-.45-1-1-1Zm4 0c-.55 0-1 .45-1 1s.45 1 1 1 1-.45 1-1-.45-1-1-1Z" class="selected" fill="#191f28"/></g></svg>